<svg width="100%" height="100%" id="svg" viewBox="0 0 1440 400" xmlns="http://www.w3.org/2000/svg" class="transition duration-300 ease-in-out delay-150"><path d="M 0,400 C 0,400 0,200 0,200 C 46.117629909447686,222.94935152074004 92.23525981889537,245.89870304148008 121,232 C 149.76474018110463,218.10129695851992 161.1765906338662,167.35453935481976 189,174 C 216.8234093661338,180.64546064518024 261.0583776456399,244.68313953924104 305,235 C 348.9416223543601,225.31686046075896 392.58989878357426,141.91290248821616 424,126 C 455.41010121642574,110.08709751178385 474.5820272200633,161.66525050789443 509,199 C 543.4179727799367,236.33474949210557 593.0819923361728,259.4260954802061 626,268 C 658.9180076638272,276.5739045197939 675.0900034352456,270.63036757128134 705,241 C 734.9099965647544,211.36963242871863 778.5579939228446,158.05243423466857 813,152 C 847.4420060771554,145.94756576533143 872.6780208733754,187.1598954900444 913,212 C 953.3219791266246,236.8401045099556 1008.7299225836537,245.30798380515384 1046,242 C 1083.2700774163463,238.69201619484616 1102.4022887920103,223.60816928934022 1134,226 C 1165.5977112079897,228.39183071065978 1209.660922248305,248.25933903748535 1246,242 C 1282.339077751695,235.74066096251465 1310.95402221477,203.35447456071847 1342,192 C 1373.04597778523,180.64552543928153 1406.522988892615,190.32276271964076 1440,200 C 1440,200 1440,400 1440,400 Z" stroke="#000000" stroke-width="0" fill="#87CEFA" fill-opacity="1" class="transition-all duration-300 ease-in-out delay-150 path-0" data-darkreader-inline-stroke="" style="--darkreader-inline-stroke:none;"></path></svg>
